<svg width="110" height="90" viewBox="0 0 110 90" fill="none" xmlns="http://www.w3.org/2000/svg">
<g clip-path="url(#clip0_90:13644)">
<path d="M33.8362 67.1453L22.6162 62.6631L33.8362 67.1453Z" fill="#72B3FF"/>
<path d="M46.552 60.9316L59.862 64.5485L46.552 60.9316Z" fill="#72B3FF"/>
<path d="M40.5242 39.1641L22.6162 62.6626L40.5242 39.1641Z" fill="#72B3FF"/>
<path d="M75.4822 64.3936L81.4222 72.5592L75.4822 64.3936Z" fill="#72B3FF"/>
<path d="M72.1162 59.7782L79.6402 49.5933L72.1162 59.7782Z" fill="#72B3FF"/>
<path d="M78.254 44.9333L67.144 59.9777L88.704 88.2691C89.518 89.3564 90.816 89.9777 92.158 89.9777H105.644C109.23 89.9777 111.276 85.8505 109.142 82.9659L81.026 44.9333C80.344 44.0014 78.936 44.0014 78.254 44.9333ZM86.724 67.1449L81.422 72.5591L75.482 64.4156L72.116 59.8002L79.64 49.6153L94.534 69.7854L86.724 67.1449Z" fill="#72B3FF"/>
<path d="M65.1209 63.1953L62.6789 59.9778L42.0869 32.9512V11.5385H58.9389C59.9509 11.5385 60.4349 10.318 59.7309 9.60799L55.9029 5.76923L59.7089 1.93047C60.4129 1.22041 59.9069 0 58.9169 0H42.0649H39.4469H38.9849V32.9512L0.902874 82.9216C-1.29713 85.8062 0.748874 90 4.35687 90H40.4809H76.6709C80.2789 90 82.3249 85.8284 80.1249 82.9216L67.1669 65.9246L65.1209 63.1953ZM46.5529 60.932L33.8149 67.145L22.5949 62.6627L40.5029 39.142L59.8409 64.5266L46.5529 60.932Z" fill="#72B3FF"/>
</g>
<defs>
<clipPath id="clip0_90:13644">
<rect width="110" height="90" fill="white"/>
</clipPath>
</defs>
</svg>
