<svg width="104" height="107" viewBox="0 0 104 107" fill="none" xmlns="http://www.w3.org/2000/svg">
<g clip-path="url(#clip0_90:13629)">
<path d="M45.1984 107C70.1608 107 90.3968 86.8102 90.3968 61.9048C90.3968 36.9994 70.1608 16.8096 45.1984 16.8096C20.236 16.8096 0 36.9994 0 61.9048C0 86.8102 20.236 107 45.1984 107Z" fill="#72B3FF"/>
<path d="M45.1983 95.3788C63.7277 95.3788 78.7487 80.392 78.7487 61.905C78.7487 43.4179 63.7277 28.4312 45.1983 28.4312C26.669 28.4312 11.6479 43.4179 11.6479 61.905C11.6479 80.392 26.669 95.3788 45.1983 95.3788Z" fill="#93CAFF"/>
<path d="M45.1983 83.7575C57.2947 83.7575 67.1007 73.9739 67.1007 61.9051C67.1007 49.8364 57.2947 40.0527 45.1983 40.0527C33.1019 40.0527 23.2959 49.8364 23.2959 61.9051C23.2959 73.9739 33.1019 83.7575 45.1983 83.7575Z" fill="#DFF4FF"/>
<path d="M55.3116 63.614C56.2568 58.0427 52.4962 52.7617 46.9122 51.8187C41.3281 50.8756 36.0351 54.6276 35.0899 60.1989C34.1447 65.7702 37.9052 71.0511 43.4893 71.9942C49.0733 72.9372 54.3664 69.1853 55.3116 63.614Z" fill="#464666"/>
<path d="M84.4582 22.6422L81.3936 19.7744L42.5476 61.0981L45.6123 63.9659L84.4582 22.6422Z" fill="#464666"/>
<path d="M91.6864 22.5168L80.7456 23.2224L81.4528 12.3065C81.5152 11.3934 81.8896 10.5426 82.5344 9.91999L92.352 0.0832945C92.56 -0.124231 92.9344 0.062542 92.872 0.353077L89.9808 13.3857C89.8976 13.7385 90.2304 14.0705 90.584 13.9875L103.646 11.1029C103.938 11.0406 104.146 11.3934 103.917 11.6217L94.0784 21.4376C93.4336 22.081 92.5808 22.4545 91.6864 22.5168Z" fill="#464666"/>
</g>
<defs>
<clipPath id="clip0_90:13629">
<rect width="104" height="107" fill="white"/>
</clipPath>
</defs>
</svg>
